<svg width="399" height="122" viewBox="0 0 399 122" fill="none" xmlns="http://www.w3.org/2000/svg">
<path d="M4.2369 81.3748C4.2369 67.8902 7.56377 50.0076 11.0443 39.3999C15.8839 41.2172 21.1786 41.9749 26.1718 41.9749C28.5946 41.9749 30.2551 41.821 30.2551 41.821V41.5191C11.3457 39.246 0 29.0941 0 13.0346C0 9.24619 0.602738 4.84803 2.11549 0C16.333 9.69607 36.9089 13.6384 51.735 13.6384C54.7605 13.6384 57.6324 13.3365 59.4524 13.1826C54.3114 23.6364 50.2223 36.9729 47.504 50.7653H47.8054C57.4847 28.4903 68.3812 9.54808 84.5665 9.54808C95.3095 9.54808 102.117 18.1846 102.117 30.4615C102.117 37.1268 100.149 44.1 95.6108 50.3154C93.0403 49.2558 89.7134 48.6461 86.3807 48.6461C75.49 48.6461 62.933 54.8615 56.1256 64.1018L56.4269 64.2557C64.7471 56.5249 72.7659 50.7712 84.1115 50.7712C98.4827 50.7712 104.232 60.0174 104.232 72.1404C104.232 91.9943 88.9512 121.088 67.0162 121.088C50.6773 121.088 37.8189 105.023 30.1074 89.7212H29.6524C33.7356 99.7251 37.8189 106.692 44.3249 113.967C41.453 118.212 35.8511 122 28.441 122C16.4926 122 4.2369 112.002 4.2369 81.3866V81.3748ZM57.4847 70.7671H57.1833C52.4914 79.4036 48.7095 88.9517 46.594 99.8612C53.2478 90.467 57.1833 81.8306 57.4847 70.7671ZM70.4908 26.8211H70.1895C66.4076 34.2441 63.6834 41.2172 61.8693 49.7057C67.3176 43.4902 70.4908 36.2212 70.4908 26.8211Z" fill="white"/>
<path d="M137.962 121.988C114.668 121.988 104.983 110.469 104.983 89.1056C104.983 61.9826 122.38 41.2172 149.154 41.2172C164.282 41.2172 174.268 48.7941 174.268 62.5864C174.268 79.4095 160.807 90.9229 145.526 90.9229C137.507 90.9229 128.283 88.194 120.412 81.9845L120.258 82.1384C127.976 89.1115 138.565 93.0479 147.943 93.0479C161.404 93.0479 172.602 85.9268 178.801 68.9558C181.223 68.9558 182.582 72.1404 182.582 76.9885C182.582 91.3846 174.262 121.994 137.956 121.994L137.962 121.988ZM146.737 48.3383C141.141 56.8268 138.571 69.2517 137.206 81.9786C138.116 82.4344 139.321 82.4344 139.321 82.4344C140.533 68.642 142.347 57.8864 147.039 48.3383H146.737Z" fill="white"/>
<path d="M213.298 101.832C218.439 89.5555 221.92 74.2537 224.798 60.1594H224.496C216.176 91.9824 205.74 121.988 191.216 121.988C181.229 121.988 175.787 107.746 175.787 91.3787C175.787 68.0442 186.831 41.2172 207.401 41.2172C215.721 41.2172 225.554 45.7633 236.9 56.8268L237.201 56.5249C233.874 52.2806 229.336 47.4326 225.099 44.8576C228.727 42.5846 232.663 41.2231 237.804 41.2231C244.156 41.2231 250.816 43.952 254.745 47.7404C249.303 57.8923 246.425 72.7442 246.425 91.3846C251.874 84.8673 255.502 76.2308 258.829 68.9558C261.251 69.4116 262.611 71.3827 262.611 75.1712C262.611 85.0212 252.624 121.994 230.843 121.994C219.343 121.994 214.959 111.842 213.292 101.838L213.298 101.832ZM207.549 88.6498C212.241 79.5575 216.472 66.073 219.804 55.1575C216.176 56.6729 211.638 68.642 207.247 88.6498H207.549Z" fill="white"/>
<path d="M250.509 88.9517C250.509 61.9767 267.905 41.2172 294.68 41.2172C309.807 41.2172 319.788 48.7941 319.788 62.5864C319.788 79.4095 305.718 90.3191 295.129 90.3191C286.809 90.3191 283.783 84.7133 283.783 77.2844C283.783 68.0382 288.322 55.9152 292.558 48.3383H292.257C288.02 55.0036 282.271 68.0382 282.271 78.1901C282.271 86.2228 285.751 92.4323 296.488 92.4323C311.161 92.4323 319.936 80.6112 324.32 68.9439C326.743 68.9439 328.102 72.1286 328.102 76.9766C328.102 91.2188 319.629 121.982 283.476 121.982C260.182 121.982 250.497 110.463 250.497 88.9458L250.509 88.9517Z" fill="white"/>
<path d="M353.53 121.988C330.235 121.988 320.55 110.469 320.55 89.1056C320.55 61.9826 337.947 41.2172 364.722 41.2172C379.849 41.2172 389.83 48.7941 389.83 62.5864C389.83 79.4095 376.369 90.9229 361.087 90.9229C353.069 90.9229 343.844 88.194 335.973 81.9845L335.82 82.1384C343.537 89.1115 354.126 93.0479 363.504 93.0479C376.965 93.0479 388.163 85.9268 394.362 68.9558C396.785 68.9558 398.144 72.1404 398.144 76.9885C398.144 91.3846 389.824 121.994 353.518 121.994L353.53 121.988ZM362.305 48.3383C356.709 56.8268 354.138 69.2517 352.773 81.9786C353.683 82.4344 354.889 82.4344 354.889 82.4344C356.1 68.642 357.914 57.8864 362.606 48.3383H362.305Z" fill="white"/>
</svg>
